<svg xmlns="http://www.w3.org/2000/svg" xmlns:svg="http://www.w3.org/2000/svg" id="SVGRoot" width="1000" height="1000" version="1.1" viewBox="0 0 1000 1000" xml:space="preserve"><title id="title251761">bopscrk logo</title><defs id="defs196"><rect id="rect28226" width="718.155" height="788.866" x="883.883" y="198.874"/><linearGradient id="linearGradient9218"><stop style="stop-color:#fc0;stop-opacity:1" id="stop9216" offset="0"/></linearGradient><linearGradient id="linearGradient9186"><stop style="stop-color:#945800;stop-opacity:1" id="stop9182" offset="0"/><stop style="stop-color:#945800;stop-opacity:0" id="stop9184" offset="1"/></linearGradient><rect id="rect2578" width="899.796" height="827.627" x="162.162" y="248.157"/><rect id="rect2572" width="707.617" height="461.916" x="149.877" y="299.754"/><rect id="rect2578-1" width="899.796" height="827.627" x="162.162" y="248.157"/><rect id="rect2578-6" width="899.796" height="827.627" x="162.162" y="248.157"/><rect id="rect2578-2" width="899.796" height="827.627" x="162.162" y="248.157"/><rect id="rect2578-66" width="899.796" height="827.627" x="162.162" y="248.157"/><rect id="rect27137" width="899.796" height="827.627" x="162.162" y="248.157"/><rect id="rect2578-2-8" width="899.796" height="827.627" x="162.162" y="248.157"/></defs><g id="layer2-7" transform="translate(99.932291,23.70171)" style="display:inline;stroke:none;stroke-opacity:1"><g id="g10680" style="display:inline;stroke:#404040;stroke-width:1;stroke-dasharray:none;stroke-opacity:1" transform="rotate(-90,1592.5795,1598.1204)"><rect style="fill:#bfbfbf;fill-opacity:1;stroke:#404040;stroke-width:1;stroke-linejoin:bevel;stroke-dasharray:none;stroke-dashoffset:0;stroke-opacity:1;paint-order:stroke fill markers" id="rect9232" width="150" height="150" x="1924.998" y="-604.602" rx="20" ry="20"/><rect style="display:inline;fill:#fff;fill-opacity:1;stroke:#404040;stroke-width:1;stroke-linejoin:bevel;stroke-dasharray:none;stroke-dashoffset:0;stroke-opacity:1;paint-order:stroke fill markers" id="rect9232-3" width="150" height="150" x="1923.86" y="-766.799" rx="20" ry="20"/><rect style="display:inline;fill:gray;fill-opacity:1;stroke:#404040;stroke-width:1;stroke-linejoin:bevel;stroke-dasharray:none;stroke-dashoffset:0;stroke-opacity:1;paint-order:stroke fill markers" id="rect9232-7" width="150" height="150" x="1924.946" y="-445.301" rx="20" ry="20"/><rect style="display:inline;fill:#404040;fill-opacity:1;stroke:#404040;stroke-width:1;stroke-linejoin:bevel;stroke-dasharray:none;stroke-dashoffset:0;stroke-opacity:1;paint-order:stroke fill markers" id="rect9232-4" width="150" height="150" x="1926.469" y="-283.215" rx="20" ry="20"/><rect style="display:inline;fill:#000;fill-opacity:1;stroke:#404040;stroke-width:1;stroke-linejoin:bevel;stroke-dasharray:none;stroke-dashoffset:0;stroke-opacity:1;paint-order:stroke fill markers" id="rect9232-7-0" width="150" height="150" x="1926.416" y="-123.914" rx="20" ry="20"/><rect style="display:inline;fill:#69f;fill-opacity:1;stroke:#404040;stroke-width:1;stroke-linejoin:bevel;stroke-dasharray:none;stroke-dashoffset:0;stroke-opacity:1;paint-order:stroke fill markers" id="rect9232-6" width="150" height="150" x="1926.469" y="36.459" rx="20" ry="20"/><rect style="display:inline;fill:#36c;fill-opacity:1;stroke:#404040;stroke-width:1;stroke-linejoin:bevel;stroke-dasharray:none;stroke-dashoffset:0;stroke-opacity:1;paint-order:stroke fill markers" id="rect9232-7-9" width="150" height="150" x="1926.416" y="195.761" rx="20" ry="20"/><rect style="display:inline;fill:#039;fill-opacity:1;stroke:#404040;stroke-width:1;stroke-linejoin:bevel;stroke-dasharray:none;stroke-dashoffset:0;stroke-opacity:1;paint-order:stroke fill markers" id="rect9232-6-1" width="150" height="150" x="1926.469" y="352.659" rx="20" ry="20"/><rect style="display:inline;fill:#f90;fill-opacity:1;stroke:#404040;stroke-width:1;stroke-linejoin:bevel;stroke-dasharray:none;stroke-dashoffset:0;stroke-opacity:1;paint-order:stroke fill markers" id="rect9232-6-0" width="150" height="150" x="1929.943" y="1149.316" rx="20" ry="20"/><rect style="display:inline;fill:#f60;fill-opacity:1;stroke:#404040;stroke-width:1;stroke-linejoin:bevel;stroke-dasharray:none;stroke-dashoffset:0;stroke-opacity:1;paint-order:stroke fill markers" id="rect9232-7-9-5" width="150" height="150" x="1929.89" y="1308.617" rx="20" ry="20"/><rect style="display:inline;fill:#c00;fill-opacity:1;stroke:#404040;stroke-width:1;stroke-linejoin:bevel;stroke-dasharray:none;stroke-dashoffset:0;stroke-opacity:1;paint-order:stroke fill markers" id="rect9232-6-1-0" width="150" height="150" x="1929.943" y="1465.516" rx="20" ry="20"/><rect style="display:inline;fill:#9c3;fill-opacity:1;stroke:#404040;stroke-width:1;stroke-linejoin:bevel;stroke-dasharray:none;stroke-dashoffset:0;stroke-opacity:1;paint-order:stroke fill markers" id="rect9232-6-5" width="150" height="150" x="1926.469" y="510.234" rx="20" ry="20"/><rect style="display:inline;fill:#0c0;fill-opacity:1;stroke:#404040;stroke-width:1;stroke-linejoin:bevel;stroke-dasharray:none;stroke-dashoffset:0;stroke-opacity:1;paint-order:stroke fill markers" id="rect9232-7-9-6" width="150" height="150" x="1926.416" y="669.535" rx="20" ry="20"/><rect style="display:inline;fill:#690;fill-opacity:1;stroke:#404040;stroke-width:1;stroke-linejoin:bevel;stroke-dasharray:none;stroke-dashoffset:0;stroke-opacity:1;paint-order:stroke fill markers" id="rect9232-6-1-4" width="150" height="150" x="1926.469" y="826.434" rx="20" ry="20"/><rect style="display:inline;fill:#fc0;fill-opacity:1;stroke:#404040;stroke-width:1;stroke-linejoin:bevel;stroke-dasharray:none;stroke-dashoffset:0;stroke-opacity:1;paint-order:stroke fill markers" id="rect9232-7-9-5-0" width="150" height="150" x="1926.416" y="985.735" rx="20" ry="20"/></g></g><g id="layer2" style="display:none"><text id="text2576-9-6" x="1558.096" y="512.602" xml:space="preserve" style="font-style:normal;font-variant:normal;font-weight:400;font-stretch:normal;font-size:771.152px;font-family:sans-serif,Normal900;-inkscape-font-specification:'sans-serif, Normal900';white-space:pre;shape-padding:41.6967;display:inline;fill:#f60;fill-opacity:1;stroke:none;stroke-width:11.017;stroke-linejoin:miter;stroke-dasharray:none;stroke-dashoffset:0;stroke-opacity:1"><tspan id="tspan36632-7" style="font-style:normal;font-variant:normal;font-weight:400;font-stretch:normal;font-family:sans-serif;-inkscape-font-specification:sans-serif;text-align:center;text-anchor:middle;fill:#f60;fill-opacity:1;stroke:none;stroke-width:11.017;stroke-linejoin:miter;stroke-dasharray:none;stroke-opacity:1;paint-order:stroke fill markers">Ƃ</tspan></text></g><g id="layer1" style="display:inline"><path id="rect214" style="fill:#404040;fill-opacity:1;stroke:none;stroke-width:15;stroke-dasharray:none;stroke-opacity:1" d="m 200,77.998047 c -83.09992,0 -150,66.900083 -150,150.000003 v 544.0039 c 0,83.09992 66.90008,150 150,150 h 600 c 83.09992,0 150,-66.90008 150,-150 V 227.99805 C 950,144.89813 883.09992,77.998047 800,77.998047 Z"/><g id="text2576-9" aria-label="b" style="font-size:771.152px;font-family:sans-serif,Normal900;-inkscape-font-specification:'sans-serif, Normal900';white-space:pre;shape-padding:41.6967;display:inline;fill:#f60;stroke-width:11.017"><path d="m 283.11352,789.18198 v -48.19699 h 48.197 v 48.19699 z M 620.49251,259.015 v -48.197 h 48.197 v 48.197 z m -96.394,578.36398 h -48.197 v -48.197 h -48.197 -48.197 v -48.19699 h -48.19699 v -48.197 -48.197 -48.197 -48.197 -48.197 -48.197 -48.19699 -48.197 h -48.197 v -48.197 h 48.197 48.19699 v -48.197 h 48.197 v 48.197 48.197 48.197 48.19699 h 48.197 V 403.606 h 48.197 v -48.197 h 48.197 v 48.197 48.19699 h 48.197 v 48.197 h 48.197 v 48.197 h 48.197 v 48.197 48.197 48.197 h -48.197 v 48.197 h -48.197 v -48.197 -48.197 -48.197 h -48.197 v -48.197 h -48.197 v -48.197 h -48.197 -48.197 v 48.197 48.197 48.197 48.197 h 48.197 v 48.197 h 48.197 48.197 48.197 v 48.19699 h -48.197 v 48.197 z M 427.70451,259.015 v -48.197 h 48.197 v 48.197 z m 192.788,-48.197 h -48.197 -48.197 -48.197 v -48.197 h 48.197 48.197 48.197 z" style="font-weight:500;font-family:GothicPixels;-inkscape-font-specification:'GothicPixels, Medium';text-align:center;text-anchor:middle;paint-order:stroke fill markers" id="path252896"/></g></g><metadata id="metadata251759"/></svg>