<svg xmlns="http://www.w3.org/2000/svg" id="SVGRoot" width="1000" height="1000" version="1.1" viewBox="0 0 1000 1000" xml:space="preserve"><title>bopscrk logo</title><g><g stroke="#404040" stroke-linejoin="bevel" transform="translate(99.932 23.702) rotate(-90 1592.6 1598.1)"><rect width="150" height="150" x="1925" y="-604.6" fill="#bfbfbf" rx="20" ry="20" style="paint-order:stroke fill markers"/><rect width="150" height="150" x="1923.9" y="-766.8" fill="#fff" rx="20" ry="20" style="paint-order:stroke fill markers"/><rect width="150" height="150" x="1924.9" y="-445.3" fill="gray" rx="20" ry="20" style="paint-order:stroke fill markers"/><rect width="150" height="150" x="1926.5" y="-283.22" fill="#404040" rx="20" ry="20" style="paint-order:stroke fill markers"/><rect width="150" height="150" x="1926.4" y="-123.91" rx="20" ry="20" style="paint-order:stroke fill markers"/><rect width="150" height="150" x="1926.5" y="36.459" fill="#69f" rx="20" ry="20" style="paint-order:stroke fill markers"/><rect width="150" height="150" x="1926.4" y="195.76" fill="#36c" rx="20" ry="20" style="paint-order:stroke fill markers"/><rect width="150" height="150" x="1926.5" y="352.66" fill="#039" rx="20" ry="20" style="paint-order:stroke fill markers"/><rect width="150" height="150" x="1929.9" y="1149.3" fill="#f90" rx="20" ry="20" style="paint-order:stroke fill markers"/><rect width="150" height="150" x="1929.9" y="1308.6" fill="#f60" rx="20" ry="20" style="paint-order:stroke fill markers"/><rect width="150" height="150" x="1929.9" y="1465.5" fill="#c00" rx="20" ry="20" style="paint-order:stroke fill markers"/><rect width="150" height="150" x="1926.5" y="510.23" fill="#9c3" rx="20" ry="20" style="paint-order:stroke fill markers"/><rect width="150" height="150" x="1926.4" y="669.54" fill="#0c0" rx="20" ry="20" style="paint-order:stroke fill markers"/><rect width="150" height="150" x="1926.5" y="826.43" fill="#690" rx="20" ry="20" style="paint-order:stroke fill markers"/><rect width="150" height="150" x="1926.4" y="985.74" fill="#fc0" rx="20" ry="20" style="paint-order:stroke fill markers"/></g></g><g display="none"><text x="1558.096" y="512.602" fill="#f60" stroke-width="11.017" display="inline" font-family="sans-serif, Normal900" font-size="771.15" style="shape-padding:41.6967;white-space:pre" xml:space="preserve"><tspan fill="#f60" stroke-width="11.017" font-family="sans-serif" text-align="center" text-anchor="middle" style="paint-order:stroke fill markers">Ƃ</tspan></text></g><g><path fill="#404040" d="m200 77.998c-83.1 0-150 66.9-150 150v544c0 83.1 66.9 150 150 150h600c83.1 0 150-66.9 150-150v-544c0-83.1-66.9-150-150-150z"/><text x="524.099" y="740.985" fill="#f60" stroke-width="11.017" font-family="sans-serif, Normal900" font-size="771.15" style="shape-padding:41.6967;white-space:pre" xml:space="preserve"><tspan fill="#f60" stroke-width="11.017" font-family="GothicPixels" font-size="771.15" font-weight="500" text-align="center" text-anchor="middle" style="font-variant-caps:normal;font-variant-east-asian:normal;font-variant-ligatures:normal;font-variant-numeric:normal;paint-order:stroke fill markers">b</tspan></text></g><metadata/></svg>